<svg width="404" height="246" viewBox="0 0 404 246" fill="none" xmlns="http://www.w3.org/2000/svg">
<g clip-path="url(#clip0_270_1104)">
<path d="M376.128 244.488C379.892 244.488 383.617 243.727 387.079 242.25C390.54 240.772 393.666 238.61 396.268 235.893C398.87 233.176 400.894 229.961 402.218 226.441C403.542 222.922 404.139 219.171 403.972 215.414C403.054 194.697 392.45 165.444 350.649 136.209C299.674 100.559 322.665 -2.08546 214.357 4.99699C106.048 12.0794 116.375 87.9352 49.9633 122.703C7.68902 144.834 0.00282594 188.137 0 216.691C0.00692988 224.069 2.94693 231.142 8.17348 236.354C13.4 241.567 20.4852 244.493 27.8708 244.488H376.128Z" fill="#F3F5FD"/>
<path d="M301.866 0H82.4717V158.716H301.866V0Z" fill="#DEE8F5"/>
<path d="M301.866 0H82.4717V13.0742H301.866V0Z" fill="#C1D8ED"/>
<path d="M294.518 9.81764C296.332 9.81764 297.802 8.349 297.802 6.53736C297.802 4.72571 296.332 3.25708 294.518 3.25708C292.705 3.25708 291.234 4.72571 291.234 6.53736C291.234 8.349 292.705 9.81764 294.518 9.81764Z" fill="white"/>
<path d="M139.977 49.8626C139.977 54.2226 138.683 58.4848 136.258 62.11C133.833 65.7353 130.386 68.5608 126.354 70.2293C122.322 71.8979 117.884 72.3344 113.604 71.4838C109.323 70.6332 105.391 68.5336 102.304 65.4506C99.2181 62.3676 97.1164 58.4396 96.2649 54.1633C95.4134 49.887 95.8504 45.4545 97.5207 41.4264C99.1909 37.3982 102.019 33.9553 105.649 31.5329C109.278 29.1106 113.544 27.8177 117.909 27.8177C120.809 27.8092 123.683 28.3736 126.364 29.4784C129.045 30.5833 131.482 32.2067 133.532 34.2555C135.583 36.3042 137.209 38.7378 138.315 41.4163C139.421 44.0947 139.986 46.9652 139.977 49.8626Z" fill="#C1D8ED"/>
<path d="M117.909 52.134C122.734 52.134 126.646 48.2267 126.646 43.4069C126.646 38.587 122.734 34.6797 117.909 34.6797C113.084 34.6797 109.173 38.587 109.173 43.4069C109.173 48.2267 113.084 52.134 117.909 52.134Z" fill="white"/>
<path d="M133.812 65.1485C131.752 67.2857 129.283 68.9858 126.55 70.1471C123.818 71.3084 120.879 71.907 117.909 71.907C114.94 71.907 112.001 71.3084 109.268 70.1471C106.536 68.9858 104.066 67.2857 102.007 65.1485C104.983 58.5054 110.989 53.9653 117.909 53.9653C124.829 53.9653 130.836 58.5057 133.812 65.1485Z" fill="white"/>
<path d="M193.521 27.9546H148.969V41.4042H193.521V27.9546Z" fill="white"/>
<path d="M290.585 49.7236H148.969V54.6169H290.585V49.7236Z" fill="white"/>
<path d="M290.585 62.9363H148.969V67.8295H290.585V62.9363Z" fill="white"/>
<path d="M130.36 110.268H93.3984V147.19H130.36V110.268Z" fill="#C1D8ED"/>
<path d="M188.452 132.031H139.513V135.917H188.452V132.031Z" fill="white"/>
<path d="M188.452 142.522H139.513V146.408H188.452V142.522Z" fill="white"/>
<path d="M188.452 111.05H139.513V114.935H188.452V111.05Z" fill="white"/>
<path d="M188.452 121.541H139.513V125.426H188.452V121.541Z" fill="white"/>
<path d="M232.847 110.268H195.885V147.19H232.847V110.268Z" fill="#C1D8ED"/>
<path d="M290.938 132.031H241.999V135.917H290.938V132.031Z" fill="white"/>
<path d="M290.938 142.522H241.999V146.408H290.938V142.522Z" fill="white"/>
<path d="M290.938 111.05H241.999V114.935H290.938V111.05Z" fill="white"/>
<path d="M290.938 121.541H241.999V125.426H290.938V121.541Z" fill="white"/>
<path d="M290.941 89.0866C290.94 89.6439 290.718 90.178 290.323 90.5717C289.928 90.9654 289.393 91.1864 288.835 91.1862H180.807V86.9871H288.835C289.111 86.9868 289.385 87.0409 289.64 87.1462C289.896 87.2516 290.128 87.4062 290.323 87.6012C290.519 87.7962 290.674 88.0277 290.78 88.2826C290.886 88.5374 290.94 88.8107 290.941 89.0866Z" fill="white"/>
<path d="M180.807 86.9871V91.1862H95.5022C94.9448 91.1862 94.4102 90.965 94.016 90.5713C93.6218 90.1775 93.4004 89.6435 93.4004 89.0866C93.4004 88.5298 93.6218 87.9958 94.016 87.602C94.4102 87.2083 94.9448 86.9871 95.5022 86.9871H180.807Z" fill="#0CBC8B"/>
<path d="M180.806 93.1387C183.046 93.1387 184.862 91.3244 184.862 89.0863C184.862 86.8482 183.046 85.0339 180.806 85.0339C178.565 85.0339 176.749 86.8482 176.749 89.0863C176.749 91.3244 178.565 93.1387 180.806 93.1387Z" fill="#0CBC8B"/>
<path d="M117.424 141.477C119.884 175.021 123.043 208.573 127.542 241.909L134.739 241.243C133.031 207.65 129.967 174.088 126.217 140.663L117.424 141.477Z" fill="#E98862"/>
<path d="M102.455 149.096C101.474 175.038 99.001 214.379 97.5742 240.634L104.768 241.319C108.174 214.868 113.533 176.012 116.451 149.864L102.455 149.096Z" fill="#E98862"/>
<path d="M114.086 244.423C114.286 244.422 114.483 244.38 114.666 244.299C114.848 244.219 115.012 244.102 115.147 243.955C115.282 243.808 115.386 243.635 115.451 243.447C115.516 243.259 115.542 243.059 115.526 242.86C115.505 242.585 115.405 242.321 115.239 242.101C115.072 241.88 114.846 241.712 114.587 241.615L105.953 238.726C105.786 238.671 105.609 238.652 105.433 238.672C105.258 238.691 105.089 238.748 104.938 238.839C103.752 239.662 102.332 240.082 100.887 240.039C99.7628 239.959 98.6833 239.565 97.7719 238.902C97.6918 238.836 97.5946 238.795 97.4918 238.782C97.3889 238.769 97.2846 238.786 97.191 238.831C97.0974 238.875 97.0184 238.945 96.9631 239.033C96.9079 239.12 96.8787 239.222 96.8789 239.325V243.543C96.8789 243.667 96.9035 243.79 96.9513 243.905C96.9991 244.02 97.0691 244.124 97.1573 244.212C97.2456 244.3 97.3504 244.37 97.4656 244.417C97.5808 244.464 97.7042 244.488 97.8288 244.488L114.086 244.423Z" fill="#C1D8ED"/>
<path d="M143.664 244.423C143.863 244.422 144.06 244.38 144.243 244.299C144.425 244.219 144.589 244.102 144.724 243.955C144.859 243.808 144.963 243.635 145.028 243.447C145.093 243.259 145.119 243.059 145.103 242.86C145.082 242.585 144.982 242.321 144.816 242.101C144.649 241.88 144.423 241.711 144.164 241.615L135.53 238.726C135.363 238.671 135.186 238.652 135.011 238.672C134.835 238.691 134.667 238.748 134.516 238.839C133.329 239.662 131.909 240.082 130.465 240.039C129.34 239.959 128.26 239.565 127.349 238.902C127.269 238.836 127.171 238.794 127.069 238.782C126.966 238.769 126.861 238.786 126.768 238.831C126.674 238.875 126.595 238.945 126.54 239.033C126.485 239.12 126.456 239.222 126.456 239.325V243.543C126.456 243.667 126.481 243.79 126.528 243.905C126.576 244.02 126.646 244.125 126.734 244.212C126.823 244.3 126.927 244.37 127.043 244.417C127.158 244.464 127.281 244.488 127.406 244.488L143.664 244.423Z" fill="#C1D8ED"/>
<path d="M102.234 135.299C102.234 135.299 98.2216 153.25 98.2216 168.346C98.2216 183.443 93.6143 206.825 93.6143 206.825C93.6143 206.825 106.854 204.063 115.531 206.825C124.208 209.586 140.388 204.616 140.388 204.616L129.108 136.956L102.234 135.299Z" fill="#262626"/>
<path d="M110.375 98.5918C110.375 98.5918 113.216 97.3727 113.216 89.9176L118.926 89.3364C118.926 89.3364 117.749 95.9242 120.422 98.264L110.375 98.5918Z" fill="#E98862"/>
<path d="M110.26 86.7863C110.465 89.0648 111.518 91.2932 113.442 92.1813C115.534 93.2159 117.848 93.7232 120.182 93.6592C126.38 93.6592 126.31 79.5737 123.608 76.6173C120.906 73.661 112.187 74.679 110.77 79.1375C110.04 81.4425 110.065 84.6183 110.26 86.7863Z" fill="#E98862"/>
<path d="M123.004 81.3045C120.58 92.1658 118.348 95.0693 112.727 92.8949C111.439 92.3963 108.352 89.3379 108.042 82.831C107.916 80.6581 108.59 78.5139 109.937 76.803C111.284 75.0921 113.211 73.9327 115.355 73.5435C126.485 71.9972 126.876 82.0364 126.876 82.0364C121.29 82.993 113.681 81.4125 113.681 81.4125" fill="#0F1011"/>
<path d="M123.265 87.4374C123.268 87.7244 123.215 88.0092 123.108 88.2754C123 88.5416 122.841 88.7838 122.639 88.988C122.437 89.1923 122.197 89.3544 121.932 89.4651C121.667 89.5758 121.382 89.6327 121.095 89.6327C120.808 89.6327 120.523 89.5758 120.258 89.4651C119.993 89.3544 119.753 89.1923 119.551 88.988C119.349 88.7838 119.19 88.5416 119.082 88.2754C118.975 88.0092 118.921 87.7244 118.925 87.4374C118.92 87.1514 118.973 86.8674 119.08 86.6023C119.188 86.3371 119.347 86.0962 119.55 85.894C119.752 85.6918 119.994 85.5323 120.259 85.4251C120.524 85.3179 120.809 85.2652 121.095 85.2701C122.641 85.346 123.265 86.2415 123.265 87.4374Z" fill="#E98862"/>
<path d="M94.2124 148.014C94.2124 149.066 94.768 152.581 93.874 152.832C93.3381 152.983 92.7051 150.362 92.7051 150.362" fill="#E98862"/>
<path d="M89.9915 147.462C89.9915 147.462 87.0723 154.56 90.4019 158.637C90.4869 158.741 90.6011 158.816 90.7298 158.854C90.8585 158.892 90.9956 158.89 91.1232 158.849C91.2509 158.808 91.3631 158.729 91.4453 158.623C91.5275 158.518 91.5758 158.389 91.5839 158.256C91.7457 155.506 92.3006 149.857 94.1152 150.519V146.085" fill="#E98862"/>
<path d="M155.815 109.647C155.815 109.647 159.892 106.412 160.18 105.25C160.468 104.088 157.598 101.802 157.598 101.802C157.598 101.802 161.416 97.9577 160.654 97.4005C159.756 96.7424 155.326 102.334 155.326 102.334C155.326 102.334 155.952 100.323 155.172 100.191C154.851 100.137 154.597 100.451 154.096 101.875C153.524 103.498 152.382 105.938 152.382 105.938L155.815 109.647Z" fill="#E98862"/>
<path d="M151.523 105.346L139.464 118.898L130.032 102.033C129.139 99.3688 127.106 97.584 122.959 97.4065C121.541 97.3455 114.621 97.3359 109.554 97.3359C106.15 97.3359 103.355 98.3794 101.742 99.9916C100.929 100.791 100.32 101.775 99.9675 102.859L99.9188 102.841L91.8112 124.865C91.7203 125.112 91.6551 125.368 91.6165 125.628L88.3438 147.652L95.9628 148.782L99.1773 127.149L102.452 118.254C102.793 119.621 102.979 121.022 103.007 122.431C103.007 129.841 99.6514 133.165 99.8987 136.967C100.287 142.947 129.369 141.534 130.851 138.138C132.377 134.635 129.28 132.477 129.416 121.02C129.43 119.774 129.527 118.469 129.66 117.141L135.382 127.374C135.682 127.91 136.105 128.367 136.618 128.706C137.13 129.045 137.716 129.256 138.327 129.323C138.938 129.389 139.556 129.309 140.129 129.088C140.702 128.867 141.214 128.513 141.623 128.054L157.478 109.528L151.523 105.346Z" fill="#367CFF"/>
<path d="M101.551 84.7968C101.339 79.5645 102.534 76.3932 104.243 74.7086C105.929 73.0466 111.352 71.813 113.644 78.2994C115.14 82.5339 114.656 83.9905 115.266 90.6735C115.877 97.3565 117.453 97.3473 117.749 103.497C118.063 110.035 115.398 115.144 108.381 115.101C102.651 115.066 99.0098 112.315 98.4846 106.567C97.7311 98.317 101.967 95.0505 101.551 84.7968Z" fill="#0F1011"/>
<path d="M51.1176 229.685L39.332 242.976L42.7481 245.999L54.5337 232.708L51.1176 229.685Z" fill="#DEE8F5"/>
<path d="M41.7927 230.251L38.7666 233.664L52.0713 245.438L55.0974 242.025L41.7927 230.251Z" fill="#DEE8F5"/>
<path d="M30.2998 242.248C23.3035 240.082 16.5156 237.252 10.3306 229.33C9.06143 227.707 7.86853 225.627 8.56442 223.684C9.08792 222.222 10.6023 221.285 12.1406 221.046C12.7138 220.963 13.2947 220.947 13.8715 220.999C13.8744 220.999 13.8772 220.999 13.8782 220.999C14.7648 221.089 15.6412 221.26 16.4965 221.511L16.7409 221.581C20.8229 222.74 24.7114 224.495 28.2806 226.788C28.6041 226.994 28.9878 227.084 29.3694 227.045C29.751 227.005 30.1079 226.838 30.3822 226.57C30.6565 226.302 30.832 225.949 30.8801 225.569C30.9283 225.189 30.8462 224.804 30.6474 224.476C30.2832 223.882 29.8595 223.326 29.3828 222.818C28.6796 222.083 27.9092 221.416 27.0817 220.824C25.9817 220.023 24.8083 219.307 23.6599 218.575C19.3905 215.859 15.3459 212.806 11.5649 209.445C8.86644 207.043 6.22702 204.378 4.94545 201.001C4.35624 199.449 4.08813 197.659 4.79109 196.154C5.95113 193.684 9.23735 192.991 11.9245 193.504C16.6328 194.405 20.3945 197.853 23.7302 201.289C26.4964 204.145 29.5961 207.307 33.5704 207.483C34.2478 207.546 34.9289 207.41 35.5295 207.09C36.6634 206.404 36.9549 204.815 36.5507 203.553C36.1466 202.291 35.2116 201.283 34.3091 200.314C29.0631 194.692 23.9008 188.844 20.4941 181.955C17.0874 175.067 15.578 166.933 17.9448 159.619C18.6385 157.481 19.6813 155.401 21.3083 153.847C22.9354 152.294 25.2163 151.32 27.4495 151.617C30.4919 152.017 32.7834 154.581 34.325 157.231C39.6236 166.319 39.2997 177.453 40.7921 187.863C41.2097 190.777 41.8165 193.766 43.5545 196.165C43.7147 196.396 43.9226 196.589 44.1642 196.733C45.5941 197.56 46.8771 195.892 47.414 194.477C49.5335 188.877 50.0633 182.473 53.8578 177.839C55.3061 176.074 57.3549 174.6 59.6387 174.614C62.4293 174.633 64.8154 176.96 65.6293 179.625C66.4432 182.289 65.956 185.185 65.0842 187.831C63.4657 192.738 60.5645 197.147 57.1462 201.021C55.3446 203.067 53.3061 205.134 52.766 207.803C52.6004 208.71 52.6696 209.644 52.9672 210.517C53.2647 211.39 53.7807 212.172 54.4661 212.79C54.7865 213.069 55.1597 213.28 55.5634 213.412C55.9672 213.544 56.3933 213.593 56.8166 213.558C57.7322 213.474 58.5602 213.007 59.3582 212.554C59.6931 212.363 60.0293 212.17 60.3674 211.981C61.7003 211.223 63.0333 210.464 64.3665 209.704C67.7558 207.772 71.8488 205.798 75.3791 207.462C77.1807 208.312 78.3609 209.984 78.9162 211.903C79.4131 213.644 79.4131 215.49 78.9162 217.231C77.8645 220.853 71.2363 230.93 68.5026 233.53C65.3103 236.564 54.2383 249.659 30.2998 242.248Z" fill="#8DDBE0"/>
<path d="M310.552 206.524H306.68V244.58H310.552V206.524Z" fill="#C1D8ED"/>
<path d="M307.366 206.524H303.493V244.58H307.366V206.524Z" fill="#DEE8F5"/>
<path d="M358.789 206.524H354.916V244.58H358.789V206.524Z" fill="#C1D8ED"/>
<path d="M355.601 206.524H351.729V244.58H355.601V206.524Z" fill="#DEE8F5"/>
<path d="M321.174 206.524H317.302V244.58H321.174V206.524Z" fill="#C1D8ED"/>
<path d="M317.988 206.524H314.115V244.58H317.988V206.524Z" fill="#DEE8F5"/>
<path d="M369.41 206.524H365.537V244.58H369.41V206.524Z" fill="#C1D8ED"/>
<path d="M366.223 206.524H362.351V244.58H366.223V206.524Z" fill="#DEE8F5"/>
<path d="M369.41 182.164H317.326V207.436H369.41V182.164Z" fill="#C1D8ED"/>
<path d="M355.577 182.164H303.493V207.436H355.577V182.164Z" fill="#DEE8F5"/>
<g opacity="0.53">
<path d="M352.775 185.757H306.295V203.732H352.775V185.757Z" fill="#F3F5FD"/>
</g>
<path d="M329.535 196.806C330.675 196.806 331.599 195.883 331.599 194.744C331.599 193.605 330.675 192.682 329.535 192.682C328.395 192.682 327.471 193.605 327.471 194.744C327.471 195.883 328.395 196.806 329.535 196.806Z" fill="white"/>
<path d="M324.913 157.446L320.978 158.375L325.911 179.221L329.847 178.291L324.913 157.446Z" fill="#F0F6FF"/>
<path d="M329.242 155.83L325.863 174.127L328.048 174.53L331.427 156.232L329.242 155.83Z" fill="#C1D8ED"/>
<path d="M329.244 155.824L328.859 157.842L331.042 158.257L331.426 156.239L329.244 155.824Z" fill="#DEE8F5"/>
<path d="M322.479 160.476L321.266 160.954L328.345 178.906L329.558 178.429L322.479 160.476Z" fill="#0CBC8B"/>
<path d="M331.6 168.334H320.928V181.959H331.6V168.334Z" fill="#C1D8ED"/>
</g>
<defs>
<clipPath id="clip0_270_1104">
<rect width="404" height="246" fill="white"/>
</clipPath>
</defs>
</svg>
