<svg width="189" height="27" viewBox="0 0 189 27" fill="none" xmlns="http://www.w3.org/2000/svg">
<path d="M20.3489 11.703C19.9699 12.0843 19.6797 12.5445 19.4989 13.0507C19.3181 13.557 19.2512 14.0969 19.3029 14.632L19.2849 14.614C19.3381 15.2439 19.2531 15.8777 19.036 16.4714C18.8189 17.065 18.4749 17.6041 18.028 18.0511C17.581 18.498 17.0419 18.8421 16.4482 19.0591C15.8546 19.2762 15.2207 19.3612 14.5909 19.308L14.6089 19.326C13.8555 19.2559 13.0988 19.4198 12.4419 19.7955C11.7851 20.1712 11.2601 20.7403 10.9386 21.4253C10.6171 22.1103 10.5146 22.8777 10.6452 23.6231C10.7759 24.3684 11.1332 25.0553 11.6685 25.5901C12.2038 26.1249 12.891 26.4816 13.6364 26.6115C14.3819 26.7415 15.1492 26.6383 15.8339 26.3162C16.5186 25.994 17.0872 25.4686 17.4623 24.8114C17.8374 24.1542 18.0007 23.3974 17.9299 22.644L17.9489 22.662C17.8957 22.0322 17.9806 21.3983 18.1977 20.8046C18.4148 20.211 18.7589 19.6719 19.2058 19.2249C19.6528 18.778 20.1919 18.4339 20.7855 18.2169C21.3792 17.9998 22.013 17.9148 22.6429 17.968L22.6239 17.95C23.2393 18.0053 23.8588 17.9044 24.4249 17.6566C24.9909 17.4088 25.4853 17.0221 25.8621 16.5324C26.2389 16.0427 26.4861 15.4657 26.5805 14.8551C26.675 14.2444 26.6138 13.6198 26.4026 13.039C26.1914 12.4583 25.837 11.9403 25.3723 11.533C24.9076 11.1257 24.3476 10.8423 23.7442 10.7091C23.1408 10.5759 22.5135 10.5971 21.9205 10.7708C21.3275 10.9446 20.788 11.2652 20.3519 11.703H20.3489Z" fill="white"/>
<path d="M12.9719 16.968L12.9529 16.95C13.4882 17.0039 14.0288 16.9382 14.5357 16.7576C15.0425 16.577 15.5029 16.2861 15.8835 15.9058C16.264 15.5255 16.5554 15.0653 16.7363 14.5586C16.9173 14.0519 16.9834 13.5114 16.9299 12.976L16.9489 12.994C16.8957 12.3641 16.9807 11.7303 17.1977 11.1366C17.4148 10.543 17.7589 10.0039 18.2058 9.55687C18.6528 9.10997 19.1919 8.76587 19.7855 8.54887C20.3792 8.33173 21.013 8.2468 21.6429 8.29997L21.6239 8.28197C22.3774 8.35277 23.1343 8.18933 23.7915 7.81407C24.4488 7.43881 24.9742 6.86994 25.2962 6.18507C25.6182 5.50021 25.7211 4.73268 25.5909 3.98717C25.4607 3.24166 25.1037 2.55448 24.5685 2.01934C24.0334 1.48421 23.3462 1.12717 22.6007 0.996946C21.8552 0.866716 21.0877 0.969626 20.4028 1.29165C19.7179 1.61366 19.1491 2.13911 18.7738 2.79632C18.3985 3.45352 18.2351 4.21049 18.3059 4.96397L18.2879 4.94497C18.3412 5.57486 18.2564 6.2088 18.0394 6.80252C17.8224 7.39624 17.4783 7.93543 17.0314 8.38247C16.5844 8.82937 16.0452 9.17347 15.4515 9.39047C14.8577 9.60747 14.2238 9.69227 13.5939 9.63897L13.6119 9.65797C13.0766 9.60407 12.5359 9.66977 12.0291 9.85037C11.5223 10.0309 11.0619 10.3219 10.6813 10.7022C10.3007 11.0825 10.0094 11.5427 9.8284 12.0494C9.6475 12.5561 9.5814 13.0966 9.6349 13.632L9.6169 13.614C9.6699 14.2438 9.5848 14.8776 9.3677 15.4712C9.1505 16.0647 8.8065 16.6038 8.3596 17.0507C7.91266 17.4976 7.37362 17.8416 6.78006 18.0588C6.1865 18.2759 5.55271 18.361 4.9229 18.308L4.9409 18.326C4.18742 18.2552 3.43045 18.4186 2.77324 18.7939C2.11604 19.1692 1.59059 19.738 1.26858 20.4229C0.946563 21.1078 0.843643 21.8753 0.973873 22.6208C1.1041 23.3663 1.46114 24.0535 1.99627 24.5886C2.53141 25.1238 3.21859 25.4808 3.9641 25.611C4.70961 25.7412 5.47714 25.6383 6.16201 25.3163C6.84687 24.9943 7.41574 24.4689 7.791 23.8117C8.1663 23.1544 8.3297 22.3975 8.2589 21.644L8.2779 21.662C8.2247 21.0321 8.3097 20.3983 8.5268 19.8046C8.7438 19.211 9.0879 18.6719 9.5348 18.2249C9.9818 17.778 10.5209 17.4339 11.1145 17.2169C11.7082 16.9998 12.342 16.9148 12.9719 16.968Z" fill="white"/>
<path d="M6.2699 14.961C6.64892 14.5798 6.9391 14.1196 7.11974 13.6133C7.30038 13.107 7.36702 12.567 7.3149 12.032L7.33389 12.05C7.28069 11.42 7.36565 10.7859 7.58286 10.1921C7.80007 9.59827 8.1443 9.05907 8.5915 8.61207C9.0387 8.16509 9.578 7.8211 10.1719 7.60415C10.7658 7.38719 11.3999 7.30249 12.0299 7.35597L12.0109 7.33797C12.7641 7.40854 13.5208 7.24505 14.1777 6.86981C14.8346 6.49458 15.3597 5.92585 15.6816 5.2412C16.0034 4.55654 16.1062 3.78929 15.976 3.04406C15.8458 2.29883 15.4888 1.61191 14.9539 1.07697C14.419 0.54203 13.732 0.18511 12.9868 0.0548905C12.2416 -0.0753395 11.4743 0.0274805 10.7897 0.3493C10.105 0.67112 9.5363 1.19629 9.1611 1.85319C8.7858 2.51009 8.6223 3.26675 8.6929 4.01997L8.6749 4.00197C8.7281 4.63182 8.6431 5.26569 8.426 5.85933C8.2089 6.45297 7.86492 6.99208 7.41796 7.43904C6.97101 7.886 6.43189 8.23003 5.83825 8.44707C5.24461 8.66417 4.61075 8.74917 3.9809 8.69597L3.9989 8.71397C3.38347 8.65877 2.76406 8.75987 2.19808 9.00777C1.6321 9.25567 1.13785 9.64247 0.761139 10.1323C0.384429 10.622 0.137449 11.199 0.0430689 11.8096C-0.0513011 12.4203 0.0099889 13.0449 0.221259 13.6255C0.432529 14.2062 0.786959 14.7241 1.25169 15.1313C1.71642 15.5386 2.27642 15.8219 2.8798 15.9551C3.48317 16.0882 4.1104 16.0669 4.70337 15.8932C5.29633 15.7194 5.83583 15.3988 6.27189 14.961H6.2699Z" fill="white"/>
<path d="M41.792 19C41.66 18.568 41.51 18.124 41.342 17.668C41.186 17.212 41.03 16.756 40.874 16.3H36.014C35.858 16.756 35.696 17.212 35.528 17.668C35.372 18.124 35.228 18.568 35.096 19H32.18C32.648 17.656 33.092 16.414 33.512 15.274C33.932 14.134 34.34 13.06 34.736 12.052C35.144 11.044 35.54 10.09 35.924 9.19C36.32 8.278 36.728 7.39 37.148 6.526H39.83C40.238 7.39 40.64 8.278 41.036 9.19C41.432 10.09 41.828 11.044 42.224 12.052C42.632 13.06 43.046 14.134 43.466 15.274C43.886 16.414 44.33 17.656 44.798 19H41.792ZM38.426 9.352C38.366 9.532 38.276 9.778 38.156 10.09C38.036 10.402 37.898 10.762 37.742 11.17C37.586 11.578 37.412 12.028 37.22 12.52C37.04 13.012 36.854 13.528 36.662 14.068H40.208C40.016 13.528 39.83 13.012 39.65 12.52C39.47 12.028 39.296 11.578 39.128 11.17C38.972 10.762 38.834 10.402 38.714 10.09C38.594 9.778 38.498 9.532 38.426 9.352Z" fill="white"/>
<path d="M50.0666 6.382C51.9386 6.382 53.3726 6.718 54.3686 7.39C55.3646 8.05 55.8626 9.082 55.8626 10.486C55.8626 11.362 55.6586 12.076 55.2506 12.628C54.8546 13.168 54.2787 13.594 53.5226 13.906C53.7746 14.218 54.0386 14.578 54.3146 14.986C54.5906 15.382 54.8606 15.802 55.1246 16.246C55.4006 16.678 55.6646 17.134 55.9166 17.614C56.1686 18.082 56.4026 18.544 56.6186 19H53.4686C53.2406 18.592 53.0066 18.178 52.7666 17.758C52.5386 17.338 52.2986 16.93 52.0466 16.534C51.8066 16.138 51.5666 15.766 51.3266 15.418C51.0866 15.058 50.8466 14.734 50.6066 14.446H49.2206V19H46.4126V6.706C47.0246 6.586 47.6546 6.502 48.3026 6.454C48.9626 6.406 49.5506 6.382 50.0666 6.382ZM50.2286 8.776C50.0246 8.776 49.8386 8.782 49.6706 8.794C49.5146 8.806 49.3646 8.818 49.2206 8.83V12.214H50.0126C51.0686 12.214 51.8246 12.082 52.2806 11.818C52.7366 11.554 52.9646 11.104 52.9646 10.468C52.9646 9.856 52.7306 9.424 52.2626 9.172C51.8066 8.908 51.1286 8.776 50.2286 8.776Z" fill="white"/>
<path d="M63.1559 19.252C62.2799 19.252 61.5239 19.132 60.8879 18.892C60.2519 18.64 59.7239 18.298 59.3039 17.866C58.8959 17.422 58.5899 16.9 58.3859 16.3C58.1939 15.688 58.0979 15.016 58.0979 14.284V6.526H60.9059V14.05C60.9059 14.554 60.9599 14.986 61.0679 15.346C61.1879 15.694 61.3439 15.982 61.5359 16.21C61.7399 16.426 61.9799 16.582 62.2559 16.678C62.5439 16.774 62.8559 16.822 63.1919 16.822C63.8759 16.822 64.4279 16.612 64.8479 16.192C65.2799 15.772 65.4959 15.058 65.4959 14.05V6.526H68.3039V14.284C68.3039 15.016 68.2019 15.688 67.9979 16.3C67.7939 16.912 67.4819 17.44 67.0619 17.884C66.6419 18.316 66.1079 18.652 65.4599 18.892C64.8119 19.132 64.0439 19.252 63.1559 19.252Z" fill="white"/>
<path d="M79.3744 19C78.5704 17.572 77.7004 16.162 76.7644 14.77C75.8284 13.378 74.8324 12.064 73.7764 10.828V19H71.0044V6.526H73.2904C73.6864 6.922 74.1244 7.408 74.6044 7.984C75.0844 8.56 75.5704 9.178 76.0624 9.838C76.5664 10.486 77.0644 11.164 77.5564 11.872C78.0484 12.568 78.5104 13.24 78.9424 13.888V6.526H81.7324V19H79.3744Z" fill="white"/>
<path d="M84.6099 6.526H87.4179V19H84.6099V6.526Z" fill="white"/>
<path d="M97.6672 19C97.4152 18.592 97.1152 18.154 96.7672 17.686C96.4312 17.206 96.0592 16.732 95.6512 16.264C95.2552 15.784 94.8412 15.328 94.4092 14.896C93.9772 14.452 93.5452 14.062 93.1132 13.726V19H90.3052V6.526H93.1132V11.242C93.8452 10.474 94.5772 9.676 95.3092 8.848C96.0532 8.008 96.7432 7.234 97.3792 6.526H100.709C99.8572 7.534 98.9992 8.506 98.1352 9.442C97.2832 10.378 96.3832 11.32 95.4352 12.268C96.4312 13.096 97.3912 14.08 98.3152 15.22C99.2512 16.36 100.145 17.62 100.997 19H97.6672Z" fill="white"/>
<path d="M111.419 19C111.287 18.568 111.137 18.124 110.969 17.668C110.813 17.212 110.657 16.756 110.501 16.3H105.641C105.485 16.756 105.323 17.212 105.155 17.668C104.999 18.124 104.855 18.568 104.723 19H101.807C102.275 17.656 102.719 16.414 103.139 15.274C103.559 14.134 103.967 13.06 104.363 12.052C104.771 11.044 105.167 10.09 105.551 9.19C105.947 8.278 106.355 7.39 106.775 6.526H109.457C109.865 7.39 110.267 8.278 110.663 9.19C111.059 10.09 111.455 11.044 111.851 12.052C112.259 13.06 112.673 14.134 113.093 15.274C113.513 16.414 113.957 17.656 114.425 19H111.419ZM108.053 9.352C107.993 9.532 107.903 9.778 107.783 10.09C107.663 10.402 107.525 10.762 107.369 11.17C107.213 11.578 107.039 12.028 106.847 12.52C106.667 13.012 106.481 13.528 106.289 14.068H109.835C109.643 13.528 109.457 13.012 109.277 12.52C109.097 12.028 108.923 11.578 108.755 11.17C108.599 10.762 108.461 10.402 108.341 10.09C108.221 9.778 108.125 9.532 108.053 9.352Z" fill="white"/>
<path d="M123.676 6.526C123.892 6.922 124.138 7.414 124.414 8.002C124.702 8.578 124.996 9.208 125.296 9.892C125.608 10.564 125.914 11.254 126.214 11.962C126.514 12.67 126.796 13.336 127.06 13.96C127.324 13.336 127.606 12.67 127.906 11.962C128.206 11.254 128.506 10.564 128.806 9.892C129.118 9.208 129.412 8.578 129.688 8.002C129.976 7.414 130.228 6.922 130.444 6.526H133C133.12 7.354 133.228 8.284 133.324 9.316C133.432 10.336 133.522 11.404 133.594 12.52C133.678 13.624 133.75 14.734 133.81 15.85C133.882 16.966 133.942 18.016 133.99 19H131.254C131.218 17.788 131.17 16.468 131.11 15.04C131.05 13.612 130.96 12.172 130.84 10.72C130.624 11.224 130.384 11.782 130.12 12.394C129.856 13.006 129.592 13.618 129.328 14.23C129.076 14.842 128.83 15.43 128.59 15.994C128.35 16.546 128.146 17.02 127.978 17.416H126.016C125.848 17.02 125.644 16.546 125.404 15.994C125.164 15.43 124.912 14.842 124.648 14.23C124.396 13.618 124.138 13.006 123.874 12.394C123.61 11.782 123.37 11.224 123.154 10.72C123.034 12.172 122.944 13.612 122.884 15.04C122.824 16.468 122.776 17.788 122.74 19H120.004C120.052 18.016 120.106 16.966 120.166 15.85C120.238 14.734 120.31 13.624 120.382 12.52C120.466 11.404 120.556 10.336 120.652 9.316C120.76 8.284 120.874 7.354 120.994 6.526H123.676Z" fill="white"/>
<path d="M136.518 19V6.526H144.942V8.884H139.326V11.332H144.312V13.636H139.326V16.642H145.356V19H136.518Z" fill="white"/>
<path d="M151.088 6.382C152.96 6.382 154.394 6.718 155.39 7.39C156.386 8.05 156.884 9.082 156.884 10.486C156.884 11.362 156.68 12.076 156.272 12.628C155.876 13.168 155.3 13.594 154.544 13.906C154.796 14.218 155.06 14.578 155.336 14.986C155.612 15.382 155.882 15.802 156.146 16.246C156.422 16.678 156.686 17.134 156.938 17.614C157.19 18.082 157.424 18.544 157.64 19H154.49C154.262 18.592 154.028 18.178 153.788 17.758C153.56 17.338 153.32 16.93 153.068 16.534C152.828 16.138 152.588 15.766 152.348 15.418C152.108 15.058 151.868 14.734 151.628 14.446H150.242V19H147.434V6.706C148.046 6.586 148.676 6.502 149.324 6.454C149.984 6.406 150.572 6.382 151.088 6.382ZM151.25 8.776C151.046 8.776 150.86 8.782 150.692 8.794C150.536 8.806 150.386 8.818 150.242 8.83V12.214H151.034C152.09 12.214 152.846 12.082 153.302 11.818C153.758 11.554 153.986 11.104 153.986 10.468C153.986 9.856 153.752 9.424 153.284 9.172C152.828 8.908 152.15 8.776 151.25 8.776Z" fill="white"/>
<path d="M168.355 19C168.223 18.568 168.072 18.124 167.904 17.668C167.748 17.212 167.592 16.756 167.436 16.3H162.577C162.421 16.756 162.258 17.212 162.09 17.668C161.934 18.124 161.79 18.568 161.658 19H158.742C159.21 17.656 159.654 16.414 160.074 15.274C160.494 14.134 160.903 13.06 161.299 12.052C161.707 11.044 162.102 10.09 162.486 9.19C162.882 8.278 163.29 7.39 163.71 6.526H166.393C166.801 7.39 167.202 8.278 167.598 9.19C167.994 10.09 168.39 11.044 168.786 12.052C169.194 13.06 169.609 14.134 170.029 15.274C170.449 16.414 170.893 17.656 171.361 19H168.355ZM164.988 9.352C164.928 9.532 164.839 9.778 164.719 10.09C164.599 10.402 164.461 10.762 164.305 11.17C164.149 11.578 163.975 12.028 163.783 12.52C163.603 13.012 163.417 13.528 163.225 14.068H166.771C166.579 13.528 166.392 13.012 166.212 12.52C166.032 12.028 165.859 11.578 165.691 11.17C165.535 10.762 165.397 10.402 165.277 10.09C165.157 9.778 165.06 9.532 164.988 9.352Z" fill="white"/>
<path d="M180.337 19C180.085 18.592 179.785 18.154 179.437 17.686C179.101 17.206 178.729 16.732 178.321 16.264C177.925 15.784 177.511 15.328 177.079 14.896C176.647 14.452 176.215 14.062 175.783 13.726V19H172.975V6.526H175.783V11.242C176.515 10.474 177.247 9.676 177.979 8.848C178.723 8.008 179.413 7.234 180.049 6.526H183.379C182.527 7.534 181.669 8.506 180.805 9.442C179.953 10.378 179.053 11.32 178.105 12.268C179.101 13.096 180.061 14.08 180.985 15.22C181.921 16.36 182.815 17.62 183.667 19H180.337Z" fill="white"/>
<path d="M185.28 6.526H188.088V19H185.28V6.526Z" fill="white"/>
</svg>
