<svg width="493" height="536" viewBox="0 0 493 536" fill="none" xmlns="http://www.w3.org/2000/svg">
<g clip-path="url(#clip0_2_2)">
<path d="M216.273 535.757H323.81C331.698 529.462 332.242 515.278 324.066 508.944C317.766 504.063 308.236 505.368 302.313 510.444C303.42 506.664 303.441 502.649 302.376 498.857C300.449 492.028 296.168 485.091 289.631 482.329C272.948 475.29 261.095 490.039 258.719 498.285C254.448 492.004 244.893 488.685 238.896 492.912C231.296 498.267 231.643 506.712 237.703 512.771C229.628 511.265 223.547 512.427 217.946 518.438C213.683 523.016 213.03 530.813 216.273 535.757Z" fill="#8DDBE0"/>
<path d="M40.752 81.6C41.002 66.732 47.126 57.68 55.227 52.839C63.227 48.062 87.984 44.386 96.837 62.754C102.614 74.739 100.092 78.9 101.307 97.879C102.522 116.858 109.107 119.025 115.207 142.154C119.997 160.298 90.174 169.054 64.59 167.533C39.006 166.012 22.931 159.906 21.89 143.581C20.39 120.148 40.264 110.732 40.752 81.6Z" fill="#67304C"/>
<path d="M58.017 119.627C60.009 116.239 62.104 109.804 61.352 98.059L77.38 95.382C77.38 95.382 75.262 114.122 83.157 120.308L58.017 119.627Z" fill="#F3A98D"/>
<path opacity="0.15" d="M80.016 116.359L66.927 105.969L77.352 106.048C77.5899 109.621 78.4934 113.118 80.016 116.359Z" fill="black"/>
<path d="M52.433 89.733C53.424 96.14 56.802 102.251 62.399 104.415C68.497 106.963 75.1257 107.979 81.707 107.377C99.219 106.256 96.472 66.433 88.307 58.561C80.142 50.689 55.692 55.143 52.5 68.008C50.844 74.662 51.489 83.634 52.433 89.733Z" fill="#F3A98D"/>
<path d="M77.562 85.261C78.3623 85.261 79.011 84.6123 79.011 83.812C79.011 83.0117 78.3623 82.363 77.562 82.363C76.7617 82.363 76.113 83.0117 76.113 83.812C76.113 84.6123 76.7617 85.261 77.562 85.261Z" fill="#0F1011"/>
<path d="M89.008 84.529C89.8083 84.529 90.457 83.8803 90.457 83.08C90.457 82.2797 89.8083 81.631 89.008 81.631C88.2077 81.631 87.559 82.2797 87.559 83.08C87.559 83.8803 88.2077 84.529 89.008 84.529Z" fill="#0F1011"/>
<path d="M91.567 80.037L87.73 79.92C87.5527 79.9104 87.3861 79.8319 87.2658 79.7012C87.1455 79.5705 87.081 79.398 87.0861 79.2205C87.0912 79.043 87.1654 78.8744 87.293 78.7509C87.4206 78.6273 87.5914 78.5584 87.769 78.559L91.606 78.676C91.7834 78.6856 91.9499 78.7641 92.0702 78.8948C92.1905 79.0255 92.255 79.198 92.2499 79.3755C92.2448 79.5531 92.1706 79.7216 92.043 79.8451C91.9154 79.9687 91.7446 80.0376 91.567 80.037Z" fill="#0F1011"/>
<path d="M74.475 81.131C74.3087 81.1267 74.1497 81.0616 74.028 80.9481C73.9064 80.8345 73.8305 80.6804 73.8148 80.5147C73.799 80.3491 73.8445 80.1834 73.9425 80.0489C74.0406 79.9145 74.1845 79.8206 74.347 79.785L78.147 78.943C78.3205 78.9111 78.4996 78.9477 78.6466 79.0452C78.7936 79.1427 78.8971 79.2934 78.9352 79.4657C78.9733 79.6379 78.9431 79.8182 78.8509 79.9686C78.7587 80.119 78.6118 80.2278 78.441 80.272L74.641 81.115C74.5865 81.1267 74.5308 81.132 74.475 81.131Z" fill="#0F1011"/>
<path d="M78.028 95.234C78.028 95.234 83.365 95.894 87.137 94.651C87.137 94.651 87.044 98.173 82.806 98.444C78.568 98.715 78.028 95.234 78.028 95.234Z" fill="#F8FCFF"/>
<path d="M64.5 73.4C63.338 102.232 60.255 113.361 60.255 113.361C60.255 113.361 47.045 96.487 45.455 78.952C43.965 62.509 56.228 53.039 64.429 51.359C95.594 44.974 97.129 67.622 97.129 67.622C94.918 75.273 60.981 79.138 60.981 79.138" fill="#67304C"/>
<path d="M70.135 89.925C70.239 91.5509 69.6928 93.1515 68.6166 94.3747C67.5404 95.5979 66.0224 96.3435 64.3965 96.4475C62.7706 96.5515 61.17 96.0053 59.9468 94.9291C58.7236 93.8529 57.978 92.3349 57.874 90.709C57.8087 89.9011 57.9066 89.0884 58.1619 88.3191C58.4172 87.5499 58.8247 86.8398 59.3601 86.2313C59.8955 85.6228 60.5478 85.1282 61.2783 84.777C62.0087 84.4258 62.8024 84.2251 63.612 84.187C67.992 84.123 69.918 86.539 70.135 89.925Z" fill="#F3A98D"/>
<g opacity="0.15">
<path d="M83.844 91.963C83.7244 91.9601 83.6097 91.9144 83.5209 91.8342C83.4321 91.754 83.375 91.6446 83.36 91.5258C83.345 91.4071 83.373 91.2869 83.4391 91.1871C83.5052 91.0873 83.6048 91.0146 83.72 90.982L86.682 90.13L84.7 85.5C84.673 85.4395 84.6583 85.3742 84.6568 85.3079C84.6553 85.2417 84.667 85.1758 84.6911 85.1141C84.7153 85.0524 84.7515 84.9962 84.7976 84.9486C84.8437 84.901 84.8988 84.863 84.9597 84.8369C85.0206 84.8108 85.0861 84.797 85.1523 84.7965C85.2186 84.7959 85.2843 84.8085 85.3456 84.8335C85.407 84.8586 85.4627 84.8955 85.5097 84.9423C85.5566 84.9891 85.5938 85.0447 85.619 85.106L87.819 90.253C87.847 90.3182 87.8609 90.3886 87.8596 90.4595C87.8583 90.5305 87.8419 90.6003 87.8116 90.6645C87.7812 90.7286 87.7375 90.7855 87.6835 90.8315C87.6294 90.8774 87.5662 90.9114 87.498 90.931L84 91.943C83.9494 91.9579 83.8967 91.9646 83.844 91.963Z" fill="black"/>
</g>
<path d="M492.778 535.759H477.308L357.649 173.022L372.699 170.482L492.778 535.759Z" fill="#C1D8ED"/>
<path d="M442.484 309.056H216.379L236.379 34.447H462.484L442.484 309.056Z" fill="#F3F5FD"/>
<path d="M310.627 77.707C291.691 76.707 267.502 86.615 270.186 97.087C272.87 107.559 282.634 106.708 279.973 116.16C277.312 125.612 247.744 133.406 250.423 143.985C253.102 154.564 293.155 157.535 283.814 165.936C274.473 174.337 253.457 188.377 261.542 197.367C269.627 206.357 303.642 212.467 296.019 223.834C288.396 235.201 279.187 248.287 296.51 252.346C315.087 256.7 388.258 263.233 386.851 238.863C385.444 214.493 348.771 223.886 355.521 208.586C362.271 193.286 378.506 192.57 375 177.245C371.494 161.92 348.26 172.406 344.551 160.897C340.842 149.388 382.105 152.154 377.398 134.962C373.779 121.745 338.661 129.423 339.332 116.762C340.003 104.101 371.642 98.262 363.471 89.176C355.3 80.09 329.471 78.706 310.627 77.707Z" fill="#262626"/>
<path d="M195.964 145.485C195.964 145.485 209.092 138.785 210.543 135.715C211.994 132.645 205.308 124.692 205.308 124.692L198.708 124.897C198.708 124.897 201.573 119.659 199.483 118.856C198.624 118.526 197.743 119.256 195.552 122.931C193.052 127.117 188.519 133.259 188.519 133.259L195.964 145.485Z" fill="#F3A98D"/>
<path d="M207.18 127.136C207.18 127.136 199.875 128.879 200.919 132.136C201.963 135.393 203.455 138.636 205.484 138.636C207.513 138.636 209.884 137.316 210.543 135.714C212.006 132.135 207.18 127.136 207.18 127.136Z" fill="#F3A98D"/>
<path opacity="0.06" d="M207.18 127.136C207.18 127.136 199.875 128.879 200.919 132.136C201.963 135.393 203.455 138.636 205.484 138.636C207.513 138.636 209.884 137.316 210.543 135.714C212.006 132.135 207.18 127.136 207.18 127.136Z" fill="black"/>
<path d="M199.932 123.925C201.113 123.362 202.328 122.874 203.571 122.466C204.841 122.024 206.149 121.7 207.479 121.5C208.216 121.384 208.962 121.338 209.707 121.362C210.126 121.378 210.543 121.427 210.954 121.51L211.896 121.75C213.152 122.096 214.371 122.56 215.539 123.137C215.858 123.297 216.111 123.564 216.253 123.892C216.394 124.22 216.415 124.587 216.312 124.929C216.209 125.271 215.988 125.565 215.689 125.76C215.39 125.955 215.031 126.038 214.677 125.994L214.592 125.983L211.126 125.544L210.264 125.444C210.071 125.432 209.876 125.432 209.683 125.444C209.204 125.481 208.73 125.562 208.265 125.684C207.195 125.967 206.144 126.317 205.118 126.733C204.07 127.158 202.965 127.633 201.984 128.106L201.938 128.128C201.661 128.273 201.357 128.361 201.045 128.386C200.733 128.411 200.419 128.374 200.122 128.275C199.825 128.176 199.551 128.019 199.317 127.812C199.082 127.605 198.891 127.353 198.756 127.07C198.621 126.788 198.544 126.482 198.53 126.169C198.516 125.856 198.565 125.544 198.674 125.251C198.783 124.957 198.95 124.689 199.165 124.462C199.38 124.235 199.639 124.053 199.926 123.928L199.932 123.925Z" fill="#F3A98D"/>
<path d="M231.083 138.63C230.707 138.63 230.335 138.545 229.997 138.38L188.631 118.38C188.329 118.241 188.057 118.044 187.832 117.799C187.607 117.554 187.433 117.266 187.32 116.953C187.208 116.64 187.159 116.308 187.176 115.976C187.194 115.644 187.278 115.318 187.423 115.019C187.567 114.719 187.771 114.452 188.02 114.232C188.27 114.012 188.561 113.844 188.876 113.738C189.191 113.632 189.525 113.59 189.856 113.614C190.188 113.639 190.512 113.729 190.808 113.88L232.174 133.88C232.684 134.126 233.095 134.539 233.34 135.049C233.585 135.56 233.65 136.139 233.523 136.691C233.396 137.243 233.086 137.735 232.642 138.088C232.199 138.44 231.649 138.631 231.083 138.63Z" fill="#0CBC8B"/>
<path d="M241.225 142.769C241.225 142.769 233.911 144.384 230.032 141.869C229.567 141.565 229.15 141.192 228.797 140.763V140.753C227.996 139.766 227.573 138.525 227.605 137.254C227.637 135.984 228.122 134.766 228.972 133.82C229.822 132.875 230.982 132.264 232.242 132.098C233.502 131.932 234.781 132.221 235.847 132.913C236.316 133.217 236.744 133.581 237.118 133.996C240.051 137.064 241.225 142.769 241.225 142.769Z" fill="#242E3A"/>
<path d="M241.225 142.769C241.225 142.769 233.911 144.384 230.032 141.869C229.567 141.565 229.15 141.192 228.797 140.763V140.753C229.066 139.471 230.731 140.215 232.457 140.563C234.183 140.911 234.357 139.549 232.637 138.203C230.917 136.857 231.737 135.226 234.026 136.728C236.315 138.23 237.877 137.464 237.179 136.428C236.607 135.568 236.402 134.261 237.118 133.998C240.051 137.064 241.225 142.769 241.225 142.769Z" fill="#262626"/>
<path d="M121.957 524.938L101.104 522.458C102.043 514.565 103.104 505.085 103.176 503.53C103.176 503.63 103.176 503.712 103.176 503.775H124.176C124.171 504.405 124.171 506.32 121.957 524.938Z" fill="#F3A98D"/>
<path d="M38.282 527.448L17.282 527.38C17.282 527.38 17.352 505.695 17.352 503.775H38.352C38.352 505.7 38.282 527.448 38.282 527.448Z" fill="#F3A98D"/>
<path d="M92.71 518.307L129.71 517.677C127.972 473.645 127.865 427.458 127.324 383.32C120.1 335.747 116.3 283.5 107.383 236.271L107.116 236.35L106.335 231.02L30.258 226.32C30.258 226.32 16.389 447.977 11.87 517.115L48.738 520.23C55.381 452.444 65.661 353.674 71.984 282.463C79.245 317.133 84.184 353.031 90.498 387.403C91.761 430.429 92.828 475.409 92.71 518.307Z" fill="#262626"/>
<path d="M63.81 535.571C64.3748 535.568 64.933 535.449 65.4496 535.221C65.9663 534.993 66.4304 534.661 66.8129 534.245C67.1954 533.83 67.4882 533.34 67.6728 532.806C67.8574 532.272 67.93 531.706 67.886 531.143C67.8252 530.363 67.5427 529.616 67.0718 528.991C66.6009 528.366 65.9612 527.888 65.228 527.614L40.785 519.428C40.3116 519.271 39.8098 519.218 39.3141 519.273C38.8184 519.328 38.3405 519.49 37.913 519.747C34.553 522.079 30.5331 523.271 26.445 523.147C23.2612 522.921 20.205 521.804 17.625 519.925C17.3982 519.739 17.1232 519.621 16.832 519.586C16.5409 519.55 16.2456 519.598 15.9806 519.724C15.7156 519.849 15.4919 520.048 15.3354 520.296C15.179 520.544 15.0963 520.832 15.097 521.125V533.077C15.097 533.43 15.1666 533.779 15.3019 534.104C15.4372 534.43 15.6354 534.726 15.8853 534.975C16.1351 535.223 16.4316 535.42 16.7578 535.554C17.084 535.688 17.4334 535.756 17.786 535.755L63.81 535.571Z" fill="#C1D8ED"/>
<path d="M147.544 535.571C148.109 535.568 148.667 535.449 149.184 535.221C149.7 534.993 150.164 534.661 150.547 534.245C150.929 533.83 151.222 533.34 151.407 532.806C151.591 532.272 151.664 531.706 151.62 531.143C151.559 530.363 151.277 529.616 150.806 528.99C150.334 528.365 149.694 527.888 148.961 527.614L124.519 519.428C124.046 519.271 123.544 519.218 123.048 519.273C122.552 519.328 122.074 519.49 121.647 519.747C118.287 522.078 114.267 523.27 110.179 523.147C106.995 522.921 103.938 521.804 101.358 519.925C101.131 519.739 100.856 519.621 100.565 519.585C100.274 519.55 99.9788 519.597 99.7138 519.723C99.4489 519.849 99.2252 520.048 99.0688 520.296C98.9125 520.544 98.83 520.832 98.831 521.125V533.077C98.831 533.43 98.9006 533.779 99.0359 534.104C99.1712 534.43 99.3694 534.726 99.6193 534.975C99.8691 535.223 100.166 535.42 100.492 535.554C100.818 535.688 101.167 535.756 101.52 535.755L147.544 535.571Z" fill="#C1D8ED"/>
<path d="M143.791 188.685C140.909 188.688 138.143 187.547 136.101 185.513L91.309 140.971L106.684 125.51L144.57 163.184L186.013 129.964L199.651 146.978L150.607 186.289C148.674 187.841 146.27 188.686 143.791 188.685Z" fill="#367CFF"/>
<path d="M112.4 234.368C108.21 243.998 25.88 247.998 24.78 231.058C24.08 220.278 33.58 210.868 33.58 189.858C33.58 168.848 14.25 142.018 30 126.268C34.57 121.698 42.46 118.748 52.08 118.738C52.8 124.348 86.86 124.368 87.12 118.868C88.42 118.888 89.43 118.908 90.06 118.938C123.24 120.368 108.66 158.128 108.34 185.868C107.954 218.328 116.724 224.448 112.4 234.368Z" fill="#367CFF"/>
<path d="M87.124 118.868C86.864 124.368 83.874 132.458 74.644 133.068C62.344 133.878 52.804 124.348 52.084 118.738H52.114C64.224 118.738 80.064 118.758 87.124 118.868Z" fill="#F3A98D"/>
<path d="M79.743 216.739C74.151 215.449 64.29 212.822 60.532 209.633C62.76 209.345 65.781 208.772 65.675 207.778C65.396 205.164 55.311 205.049 52.375 204.55L52.75 204.891L46.941 203.906L48.834 216.068C48.834 216.068 67.282 227.579 80.252 220.219C80.5821 220.031 80.8478 219.748 81.0144 219.406C81.181 219.065 81.2407 218.681 81.1857 218.305C81.1307 217.929 80.9636 217.579 80.7062 217.299C80.4488 217.02 80.1131 216.825 79.743 216.739Z" fill="#F3A98D"/>
<path d="M48.872 221.178L6.506 202.506C5.19275 201.928 4.00658 201.096 3.01554 200.058C2.02451 199.021 1.24811 197.798 0.730887 196.459C0.213666 195.121 -0.0341974 193.693 0.00151563 192.259C0.0372287 190.824 0.355816 189.411 0.939 188.1L25.11 133.681L45.038 142.531L25.3 186.963L57.662 201.225L48.872 221.178Z" fill="#367CFF"/>
<path d="M457.308 309.056H201.554V324.317H457.308V309.056Z" fill="#D7E8F4"/>
<path d="M272.096 319.229L235.446 535.759H219.966L257.047 316.689L272.096 319.229Z" fill="#D7E8F4"/>
<path d="M438.886 535.759H423.417L386.766 319.229L401.817 316.689L438.886 535.759Z" fill="#D7E8F4"/>
<path d="M477.308 19.187H221.554V34.448H477.308V19.187Z" fill="#D7E8F4"/>
<path d="M408.963 402.652H250.251V414.921H408.963V402.652Z" fill="#D7E8F4"/>
<path d="M357.649 0H341.214V26.817H357.649V0Z" fill="#D7E8F4"/>
<path d="M416.079 144.4C404.162 131.779 370.148 121.932 370.679 150.865C371.21 179.798 361.538 176.292 345.771 179.139C330.004 181.986 307.121 203.19 320.207 223.646C333.293 244.102 362.901 248.437 372.048 235.258C381.195 222.079 373.618 206.745 397.548 209.041C421.478 211.337 447.6 177.783 416.079 144.4Z" fill="#0CBC8B"/>
<path d="M77.551 195.292C70.761 199.229 76.536 207.942 57.087 209.843C37.638 211.744 29.697 229.743 59.347 238.526C86.102 246.453 106.011 228.563 107.629 216.193C109.247 203.823 92.812 186.445 77.551 195.292Z" fill="#DEE8F5"/>
<path d="M54.441 231.427C57.7768 231.427 60.481 229.142 60.481 226.324C60.481 223.506 57.7768 221.221 54.441 221.221C51.1052 221.221 48.401 223.506 48.401 226.324C48.401 229.142 51.1052 231.427 54.441 231.427Z" fill="#262626"/>
<path d="M70.217 235.794C73.0723 235.794 75.387 233.839 75.387 231.427C75.387 229.015 73.0723 227.06 70.217 227.06C67.3617 227.06 65.047 229.015 65.047 231.427C65.047 233.839 67.3617 235.794 70.217 235.794Z" fill="#0CBC8B"/>
<path d="M86.98 232.319C89.2665 232.319 91.12 230.753 91.12 228.822C91.12 226.891 89.2665 225.325 86.98 225.325C84.6935 225.325 82.84 226.891 82.84 228.822C82.84 230.753 84.6935 232.319 86.98 232.319Z" fill="#8DDBE0"/>
<path d="M96.848 224.207C98.7998 224.207 100.382 222.871 100.382 221.222C100.382 219.573 98.7998 218.237 96.848 218.237C94.8962 218.237 93.314 219.573 93.314 221.222C93.314 222.871 94.8962 224.207 96.848 224.207Z" fill="#C1D8ED"/>
<path d="M99.255 211.416C100.921 211.416 102.271 210.275 102.271 208.868C102.271 207.461 100.921 206.32 99.255 206.32C97.5893 206.32 96.239 207.461 96.239 208.868C96.239 210.275 97.5893 211.416 99.255 211.416Z" fill="#9EBCEA"/>
<path d="M57.087 209.843C59.315 209.555 69.604 211.416 69.604 208.868C69.604 206.239 60.374 205.71 57.435 205.212" fill="#F3A98D"/>
</g>
<defs>
<clipPath id="clip0_2_2">
<rect width="492.778" height="535.759" fill="white"/>
</clipPath>
</defs>
</svg>
