<svg width="493" height="536" viewBox="0 0 493 536" fill="none" xmlns="http://www.w3.org/2000/svg">
<g clip-path="url(#clip0_270_1192)">
<path d="M216.273 535.757H323.81C331.698 529.462 332.242 515.278 324.066 508.944C317.766 504.063 308.236 505.368 302.313 510.444C303.42 506.664 303.442 502.649 302.376 498.857C300.449 492.028 296.168 485.091 289.631 482.329C272.948 475.29 261.095 490.039 258.719 498.285C254.448 492.004 244.893 488.685 238.896 492.912C231.296 498.267 231.643 506.712 237.703 512.771C229.628 511.265 223.547 512.427 217.946 518.438C213.683 523.016 213.03 530.813 216.273 535.757Z" fill="#8DDBE0"/>
<path d="M40.7524 81.6C41.0024 66.732 47.1264 57.68 55.2274 52.839C63.2274 48.062 87.9844 44.386 96.8374 62.754C102.614 74.739 100.092 78.9 101.307 97.879C102.522 116.858 109.107 119.025 115.207 142.154C119.997 160.298 90.1744 169.054 64.5904 167.533C39.0064 166.012 22.9314 159.906 21.8904 143.581C20.3904 120.148 40.2644 110.732 40.7524 81.6Z" fill="#0F1011"/>
<path d="M58.0176 119.627C60.0096 116.239 62.1046 109.804 61.3526 98.059L77.3806 95.382C77.3806 95.382 75.2626 114.122 83.1576 120.308L58.0176 119.627Z" fill="#E98862"/>
<path opacity="0.15" d="M80.0167 116.359L66.9277 105.969L77.3527 106.048C77.5906 109.621 78.4942 113.118 80.0167 116.359Z" fill="black"/>
<path d="M52.4337 89.733C53.4247 96.14 56.8027 102.251 62.3997 104.415C68.4977 106.963 75.1264 107.979 81.7077 107.377C99.2197 106.256 96.4727 66.433 88.3077 58.561C80.1427 50.689 55.6927 55.143 52.5007 68.008C50.8447 74.662 51.4897 83.634 52.4337 89.733Z" fill="#E98862"/>
<path d="M77.5633 85.261C78.3635 85.261 79.0123 84.6123 79.0123 83.812C79.0123 83.0118 78.3635 82.363 77.5633 82.363C76.763 82.363 76.1143 83.0118 76.1143 83.812C76.1143 84.6123 76.763 85.261 77.5633 85.261Z" fill="#0F1011"/>
<path d="M89.0086 84.529C89.8088 84.529 90.4576 83.8803 90.4576 83.08C90.4576 82.2798 89.8088 81.631 89.0086 81.631C88.2083 81.631 87.5596 82.2798 87.5596 83.08C87.5596 83.8803 88.2083 84.529 89.0086 84.529Z" fill="#0F1011"/>
<path d="M91.5681 80.037L87.7311 79.92C87.5537 79.9104 87.3872 79.8319 87.2669 79.7012C87.1466 79.5706 87.0821 79.3981 87.0872 79.2205C87.0923 79.043 87.1665 78.8745 87.2941 78.7509C87.4217 78.6273 87.5925 78.5585 87.7701 78.559L91.6071 78.676C91.7844 78.6856 91.951 78.7641 92.0713 78.8948C92.1916 79.0255 92.2561 79.198 92.251 79.3755C92.2459 79.5531 92.1716 79.7216 92.0441 79.8452C91.9165 79.9687 91.7457 80.0376 91.5681 80.037Z" fill="#0F1011"/>
<path d="M74.4758 81.131C74.3094 81.1267 74.1504 81.0616 74.0288 80.9481C73.9072 80.8345 73.8313 80.6804 73.8156 80.5147C73.7998 80.3491 73.8452 80.1834 73.9433 80.0489C74.0414 79.9145 74.1852 79.8206 74.3478 79.785L78.1478 78.943C78.3213 78.9111 78.5004 78.9477 78.6474 79.0452C78.7944 79.1427 78.8979 79.2934 78.936 79.4657C78.9741 79.6379 78.9439 79.8182 78.8517 79.9686C78.7595 80.119 78.6126 80.2278 78.4418 80.272L74.6418 81.115C74.5873 81.1267 74.5316 81.132 74.4758 81.131Z" fill="#0F1011"/>
<path d="M78.0283 95.234C78.0283 95.234 83.3653 95.894 87.1373 94.651C87.1373 94.651 87.0443 98.173 82.8063 98.444C78.5683 98.715 78.0283 95.234 78.0283 95.234Z" fill="#F8FCFF"/>
<path d="M64.5001 73.4C63.3381 102.232 60.2551 113.361 60.2551 113.361C60.2551 113.361 47.0451 96.487 45.4551 78.952C43.9651 62.509 56.2281 53.039 64.4291 51.359C95.5941 44.974 97.1291 67.622 97.1291 67.622C94.9181 75.273 60.9811 79.138 60.9811 79.138" fill="#0F1011"/>
<path d="M70.1351 89.925C70.2391 91.5509 69.6929 93.1516 68.6167 94.3748C67.5406 95.598 66.0225 96.3436 64.3966 96.4475C62.7707 96.5515 61.1701 96.0053 59.9469 94.9291C58.7237 93.853 57.9781 92.3349 57.8741 90.709C57.8088 89.9012 57.9068 89.0884 58.1621 88.3192C58.4174 87.5499 58.8248 86.8399 59.3602 86.2314C59.8956 85.6228 60.5479 85.1283 61.2784 84.777C62.0089 84.4258 62.8025 84.2252 63.6121 84.187C67.9921 84.123 69.9181 86.539 70.1351 89.925Z" fill="#E98862"/>
<g opacity="0.15">
<path d="M83.8444 91.963C83.7248 91.9601 83.6101 91.9144 83.5213 91.8342C83.4325 91.754 83.3754 91.6446 83.3604 91.5258C83.3454 91.4071 83.3735 91.2869 83.4395 91.1871C83.5056 91.0873 83.6053 91.0146 83.7204 90.982L86.6824 90.13L84.7004 85.5C84.6735 85.4395 84.6588 85.3742 84.6573 85.3079C84.6557 85.2417 84.6674 85.1758 84.6915 85.1141C84.7157 85.0524 84.7519 84.9962 84.798 84.9486C84.8441 84.901 84.8992 84.863 84.9601 84.8369C85.021 84.8108 85.0865 84.797 85.1527 84.7965C85.219 84.7959 85.2847 84.8085 85.3461 84.8335C85.4074 84.8586 85.4632 84.8955 85.5101 84.9423C85.557 84.9891 85.5942 85.0447 85.6194 85.106L87.8194 90.253C87.8475 90.3182 87.8613 90.3886 87.86 90.4595C87.8587 90.5305 87.8424 90.6003 87.812 90.6645C87.7816 90.7286 87.738 90.7855 87.6839 90.8315C87.6298 90.8774 87.5666 90.9114 87.4984 90.931L84.0004 91.943C83.9498 91.9579 83.8972 91.9646 83.8444 91.963Z" fill="black"/>
</g>
<path d="M492.778 535.759H477.308L357.649 173.022L372.699 170.482L492.778 535.759Z" fill="#C1D8ED"/>
<path d="M442.484 309.056H216.379L236.379 34.447H462.484L442.484 309.056Z" fill="#F3F5FD"/>
<path d="M310.627 77.707C291.691 76.707 267.502 86.615 270.186 97.087C272.87 107.559 282.634 106.708 279.973 116.16C277.312 125.612 247.744 133.406 250.423 143.985C253.102 154.564 293.155 157.535 283.814 165.936C274.473 174.337 253.457 188.377 261.542 197.367C269.627 206.357 303.642 212.467 296.019 223.834C288.396 235.201 279.187 248.287 296.51 252.346C315.087 256.7 388.258 263.233 386.851 238.863C385.444 214.493 348.771 223.886 355.521 208.586C362.271 193.286 378.506 192.57 375 177.245C371.494 161.92 348.26 172.406 344.551 160.897C340.842 149.388 382.105 152.154 377.398 134.962C373.779 121.745 338.661 129.423 339.332 116.762C340.003 104.101 371.642 98.262 363.471 89.176C355.3 80.09 329.471 78.706 310.627 77.707Z" fill="#262626"/>
<path d="M195.964 145.485C195.964 145.485 209.092 138.785 210.543 135.715C211.994 132.645 205.308 124.692 205.308 124.692L198.708 124.897C198.708 124.897 201.573 119.659 199.483 118.856C198.624 118.526 197.743 119.256 195.552 122.931C193.052 127.117 188.519 133.259 188.519 133.259L195.964 145.485Z" fill="#E98862"/>
<path d="M207.18 127.136C207.18 127.136 199.875 128.879 200.919 132.136C201.963 135.393 203.455 138.636 205.484 138.636C207.513 138.636 209.884 137.316 210.543 135.714C212.006 132.135 207.18 127.136 207.18 127.136Z" fill="#E98862"/>
<path opacity="0.06" d="M207.18 127.136C207.18 127.136 199.875 128.879 200.919 132.136C201.963 135.393 203.455 138.636 205.484 138.636C207.513 138.636 209.884 137.316 210.543 135.714C212.006 132.135 207.18 127.136 207.18 127.136Z" fill="black"/>
<path d="M199.932 123.925C201.113 123.362 202.328 122.874 203.571 122.466C204.841 122.024 206.149 121.7 207.479 121.5C208.216 121.384 208.962 121.338 209.707 121.362C210.126 121.378 210.543 121.427 210.954 121.51L211.896 121.75C213.152 122.096 214.371 122.56 215.539 123.137C215.858 123.297 216.111 123.564 216.253 123.892C216.394 124.22 216.415 124.587 216.312 124.929C216.209 125.271 215.988 125.565 215.689 125.76C215.39 125.955 215.031 126.038 214.677 125.994L214.592 125.983L211.126 125.544L210.264 125.444C210.071 125.431 209.877 125.431 209.683 125.444C209.204 125.481 208.73 125.562 208.265 125.684C207.195 125.967 206.144 126.317 205.118 126.733C204.07 127.158 202.965 127.633 201.984 128.106L201.938 128.128C201.661 128.273 201.357 128.361 201.045 128.386C200.733 128.411 200.419 128.374 200.122 128.275C199.825 128.176 199.551 128.019 199.317 127.812C199.082 127.605 198.891 127.353 198.756 127.07C198.621 126.788 198.544 126.482 198.53 126.169C198.516 125.856 198.565 125.544 198.674 125.251C198.783 124.957 198.95 124.689 199.165 124.462C199.38 124.235 199.639 124.053 199.926 123.928L199.932 123.925Z" fill="#E98862"/>
<path d="M231.083 138.63C230.707 138.63 230.335 138.545 229.997 138.38L188.631 118.38C188.328 118.241 188.057 118.044 187.832 117.799C187.607 117.554 187.433 117.266 187.32 116.953C187.208 116.64 187.159 116.308 187.176 115.976C187.194 115.644 187.278 115.318 187.422 115.019C187.567 114.719 187.77 114.452 188.02 114.232C188.27 114.012 188.561 113.844 188.876 113.738C189.191 113.632 189.524 113.59 189.856 113.614C190.188 113.639 190.511 113.729 190.808 113.88L232.174 133.88C232.684 134.126 233.095 134.539 233.34 135.049C233.585 135.56 233.65 136.139 233.523 136.69C233.396 137.242 233.086 137.735 232.642 138.088C232.199 138.44 231.649 138.631 231.083 138.63Z" fill="#0CBC8B"/>
<path d="M241.225 142.769C241.225 142.769 233.911 144.384 230.032 141.869C229.567 141.565 229.15 141.192 228.797 140.763V140.753C227.996 139.766 227.573 138.525 227.605 137.254C227.637 135.984 228.122 134.766 228.972 133.82C229.822 132.875 230.982 132.264 232.242 132.098C233.503 131.932 234.781 132.221 235.847 132.913C236.317 133.217 236.744 133.581 237.118 133.996C240.051 137.064 241.225 142.769 241.225 142.769Z" fill="#242E3A"/>
<path d="M241.225 142.769C241.225 142.769 233.911 144.384 230.032 141.869C229.566 141.565 229.15 141.192 228.797 140.763V140.753C229.066 139.471 230.731 140.215 232.457 140.563C234.183 140.911 234.357 139.549 232.637 138.203C230.917 136.857 231.737 135.226 234.026 136.728C236.315 138.23 237.877 137.464 237.179 136.428C236.607 135.568 236.402 134.261 237.118 133.998C240.051 137.064 241.225 142.769 241.225 142.769Z" fill="#262626"/>
<path d="M121.957 524.938L101.104 522.458C102.043 514.565 103.104 505.085 103.176 503.53C103.176 503.63 103.176 503.712 103.176 503.775H124.176C124.171 504.405 124.171 506.32 121.957 524.938Z" fill="#E98862"/>
<path d="M38.2822 527.448L17.2822 527.38C17.2822 527.38 17.3522 505.695 17.3522 503.775H38.3522C38.3522 505.7 38.2822 527.448 38.2822 527.448Z" fill="#E98862"/>
<path d="M92.7101 518.307L129.71 517.677C127.972 473.645 127.865 427.458 127.324 383.32C120.1 335.747 116.3 283.5 107.383 236.271L107.116 236.35L106.335 231.02L30.2581 226.32C30.2581 226.32 16.3891 447.977 11.8701 517.115L48.7381 520.23C55.3811 452.444 65.6611 353.674 71.9841 282.463C79.2451 317.133 84.1841 353.031 90.4981 387.403C91.7611 430.429 92.8281 475.409 92.7101 518.307Z" fill="#262626"/>
<path d="M63.8097 535.571C64.3745 535.568 64.9326 535.449 65.4493 535.221C65.966 534.993 66.4301 534.661 66.8126 534.245C67.1951 533.83 67.4878 533.34 67.6725 532.806C67.8571 532.272 67.9297 531.706 67.8857 531.143C67.8249 530.363 67.5424 529.616 67.0715 528.991C66.6006 528.366 65.9609 527.888 65.2277 527.614L40.7847 519.428C40.3113 519.271 39.8095 519.218 39.3138 519.273C38.8181 519.328 38.3401 519.49 37.9127 519.747C34.5526 522.079 30.5328 523.271 26.4447 523.147C23.2608 522.921 20.2047 521.804 17.6247 519.925C17.3979 519.739 17.1229 519.621 16.8317 519.586C16.5406 519.55 16.2453 519.598 15.9803 519.724C15.7153 519.849 15.4915 520.048 15.3351 520.296C15.1786 520.544 15.096 520.832 15.0967 521.125V533.077C15.0967 533.43 15.1663 533.779 15.3016 534.104C15.4369 534.43 15.6351 534.726 15.8849 534.974C16.1348 535.223 16.4313 535.42 16.7575 535.554C17.0837 535.688 17.4331 535.756 17.7857 535.755L63.8097 535.571Z" fill="#C1D8ED"/>
<path d="M147.544 535.571C148.109 535.568 148.667 535.449 149.184 535.221C149.7 534.993 150.164 534.661 150.547 534.245C150.93 533.83 151.222 533.34 151.407 532.806C151.591 532.272 151.664 531.706 151.62 531.143C151.559 530.362 151.277 529.616 150.806 528.99C150.334 528.365 149.695 527.888 148.961 527.614L124.519 519.428C124.046 519.271 123.544 519.218 123.048 519.273C122.552 519.328 122.075 519.49 121.647 519.747C118.287 522.078 114.267 523.27 110.179 523.147C106.995 522.921 103.938 521.804 101.358 519.925C101.131 519.739 100.856 519.621 100.565 519.585C100.274 519.55 99.9788 519.597 99.7139 519.723C99.4489 519.849 99.2252 520.048 99.0689 520.296C98.9126 520.544 98.8301 520.832 98.8311 521.125V533.077C98.8311 533.43 98.9007 533.779 99.036 534.104C99.1712 534.43 99.3695 534.726 99.6193 534.974C99.8692 535.223 100.166 535.42 100.492 535.554C100.818 535.688 101.167 535.756 101.52 535.755L147.544 535.571Z" fill="#C1D8ED"/>
<path d="M143.792 188.685C140.909 188.688 138.144 187.547 136.102 185.513L91.3096 140.971L106.685 125.51L144.571 163.184L186.014 129.964L199.652 146.978L150.608 186.289C148.675 187.841 146.27 188.686 143.792 188.685Z" fill="#367CFF"/>
<path d="M112.4 234.368C108.21 243.998 25.8801 247.998 24.7801 231.058C24.0801 220.278 33.5801 210.868 33.5801 189.858C33.5801 168.848 14.2501 142.018 30.0001 126.268C34.5701 121.698 42.4601 118.748 52.0801 118.738C52.8001 124.348 86.8601 124.368 87.1201 118.868C88.4201 118.888 89.4301 118.908 90.0601 118.938C123.24 120.368 108.66 158.128 108.34 185.868C107.954 218.328 116.724 224.448 112.4 234.368Z" fill="#367CFF"/>
<path d="M87.124 118.868C86.864 124.368 83.874 132.458 74.644 133.068C62.344 133.878 52.804 124.348 52.084 118.738H52.114C64.224 118.738 80.064 118.758 87.124 118.868Z" fill="#E98862"/>
<path d="M79.7434 216.739C74.1514 215.449 64.2904 212.822 60.5324 209.633C62.7604 209.345 65.7814 208.772 65.6754 207.778C65.3964 205.164 55.3114 205.049 52.3754 204.55L52.7504 204.891L46.9414 203.906L48.8344 216.068C48.8344 216.068 67.2824 227.579 80.2524 220.219C80.5825 220.031 80.8482 219.748 81.0148 219.406C81.1814 219.065 81.2411 218.681 81.1861 218.305C81.1311 217.929 80.964 217.579 80.7066 217.299C80.4492 217.02 80.1135 216.825 79.7434 216.739Z" fill="#E98862"/>
<path d="M48.8719 221.178L6.50591 202.506C5.19266 201.928 4.00649 201.096 3.01545 200.058C2.02442 199.021 1.24802 197.798 0.730796 196.459C0.213574 195.121 -0.0342894 193.693 0.00142365 192.259C0.0371367 190.824 0.355724 189.411 0.938908 188.1L25.1099 133.681L45.0379 142.531L25.2999 186.963L57.6619 201.225L48.8719 221.178Z" fill="#367CFF"/>
<path d="M457.308 309.056H201.554V324.317H457.308V309.056Z" fill="#D7E8F4"/>
<path d="M272.096 319.229L235.446 535.759H219.966L257.047 316.689L272.096 319.229Z" fill="#D7E8F4"/>
<path d="M438.886 535.759H423.417L386.766 319.229L401.817 316.689L438.886 535.759Z" fill="#D7E8F4"/>
<path d="M477.308 19.187H221.554V34.448H477.308V19.187Z" fill="#D7E8F4"/>
<path d="M408.963 402.652H250.251V414.921H408.963V402.652Z" fill="#D7E8F4"/>
<path d="M357.649 0H341.214V26.817H357.649V0Z" fill="#D7E8F4"/>
<path d="M416.079 144.4C404.162 131.779 370.148 121.932 370.679 150.865C371.21 179.798 361.538 176.292 345.771 179.139C330.004 181.986 307.121 203.19 320.207 223.646C333.293 244.102 362.901 248.437 372.048 235.258C381.195 222.079 373.618 206.745 397.548 209.041C421.478 211.337 447.6 177.783 416.079 144.4Z" fill="#0CBC8B"/>
<path d="M77.5513 195.292C70.7613 199.229 76.5363 207.942 57.0873 209.843C37.6383 211.744 29.6973 229.743 59.3473 238.526C86.1023 246.453 106.011 228.563 107.629 216.193C109.247 203.823 92.8123 186.445 77.5513 195.292Z" fill="#DEE8F5"/>
<path d="M54.4414 231.427C57.7772 231.427 60.4814 229.142 60.4814 226.324C60.4814 223.506 57.7772 221.221 54.4414 221.221C51.1056 221.221 48.4014 223.506 48.4014 226.324C48.4014 229.142 51.1056 231.427 54.4414 231.427Z" fill="#262626"/>
<path d="M70.2169 235.794C73.0722 235.794 75.3869 233.839 75.3869 231.427C75.3869 229.015 73.0722 227.06 70.2169 227.06C67.3616 227.06 65.0469 229.015 65.0469 231.427C65.0469 233.839 67.3616 235.794 70.2169 235.794Z" fill="#0CBC8B"/>
<path d="M86.9799 232.319C89.2663 232.319 91.1199 230.753 91.1199 228.822C91.1199 226.891 89.2663 225.325 86.9799 225.325C84.6934 225.325 82.8398 226.891 82.8398 228.822C82.8398 230.753 84.6934 232.319 86.9799 232.319Z" fill="#8DDBE0"/>
<path d="M96.8484 224.207C98.8002 224.207 100.382 222.871 100.382 221.222C100.382 219.573 98.8002 218.237 96.8484 218.237C94.8967 218.237 93.3145 219.573 93.3145 221.222C93.3145 222.871 94.8967 224.207 96.8484 224.207Z" fill="#C1D8ED"/>
<path d="M99.2553 211.416C100.921 211.416 102.271 210.275 102.271 208.868C102.271 207.461 100.921 206.32 99.2553 206.32C97.5896 206.32 96.2393 207.461 96.2393 208.868C96.2393 210.275 97.5896 211.416 99.2553 211.416Z" fill="#9EBCEA"/>
<path d="M57.0869 209.843C59.3149 209.555 69.6039 211.416 69.6039 208.868C69.6039 206.239 60.3739 205.71 57.4349 205.212" fill="#E98862"/>
</g>
<defs>
<clipPath id="clip0_270_1192">
<rect width="492.778" height="535.759" fill="white"/>
</clipPath>
</defs>
</svg>
